<?xml version="1.0" encoding="utf-8"?>
<!-- Generator: Adobe Illustrator 16.0.0, SVG Export Plug-In . SVG Version: 6.00 Build 0)  -->
<!DOCTYPE svg PUBLIC "-//W3C//DTD SVG 1.1//EN" "http://www.w3.org/Graphics/SVG/1.1/DTD/svg11.dtd">
<svg version="1.1" id="Layer_1" xmlns="http://www.w3.org/2000/svg" xmlns:xlink="http://www.w3.org/1999/xlink" x="0px" y="0px"
	 width="256px" height="256px" viewBox="0 0 256 256" enable-background="new 0 0 256 256" xml:space="preserve">
<path fill="#999999" d="M185.066,128c0,3.534-2.866,6-6.4,6H134v44.666c0,3.534-2.467,6.398-6,6.398c-3.534,0-6-2.864-6-6.398V134
	H77.332c-3.535,0-6.4-2.466-6.4-6s2.866-6,6.4-6H122V77.331c0-3.534,2.466-6.4,6-6.4c3.533,0,6,2.866,6,6.4V122h44.666
	C182.2,122,185.066,124.466,185.066,128z M256,128C256,57.42,198.58,0,128,0S0,57.42,0,128s57.42,128,128,128S256,198.58,256,128z
	 M243.2,128c0,63.521-51.679,115.2-115.2,115.2c-63.522,0-115.2-51.679-115.2-115.2C12.8,64.478,64.478,12.8,128,12.8
	C191.521,12.8,243.2,64.478,243.2,128z"/>
</svg>
